<?xml version="1.0" standalone="no"?>
<!DOCTYPE svg PUBLIC "-//W3C//DTD SVG 1.1//EN" "http://www.w3.org/Graphics/SVG/1.1/DTD/svg11.dtd" >
<svg xmlns="http://www.w3.org/2000/svg">
<metadata>
Created by FontForge 20120731 at Sun May 21 13:14:14 2017
 By admin
</metadata>
<defs>
<font id="iconfont" horiz-adv-x="1024" >
  <font-face 
    font-family="iconfont"
    font-weight="500"
    font-stretch="normal"
    units-per-em="1024"
    panose-1="2 0 6 3 0 0 0 0 0 0"
    ascent="896"
    descent="-128"
    x-height="792"
    bbox="-53 -221 1198 902"
    underline-thickness="0"
    underline-position="0"
    unicode-range="U+0078-E8F1"
  />
<missing-glyph 
 />
    <glyph glyph-name=".notdef" 
 />
    <glyph glyph-name=".notdef" 
 />
    <glyph glyph-name=".null" horiz-adv-x="0" 
 />
    <glyph glyph-name="nonmarkingreturn" horiz-adv-x="341" 
 />
    <glyph glyph-name="x" unicode="x" horiz-adv-x="1001" 
d="M281 543q-27 -1 -53 -1h-83q-18 0 -36.5 -6t-32.5 -18.5t-23 -32t-9 -45.5v-76h912v41q0 16 -0.5 30t-0.5 18q0 13 -5 29t-17 29.5t-31.5 22.5t-49.5 9h-133v-97h-438v97zM955 310v-52q0 -23 0.5 -52t0.5 -58t-10.5 -47.5t-26 -30t-33 -16t-31.5 -4.5q-14 -1 -29.5 -0.5
t-29.5 0.5h-32l-45 128h-439l-44 -128h-29h-34q-20 0 -45 1q-25 0 -41 9.5t-25.5 23t-13.5 29.5t-4 30v167h911zM163 247q-12 0 -21 -8.5t-9 -21.5t9 -21.5t21 -8.5q13 0 22 8.5t9 21.5t-9 21.5t-22 8.5zM316 123q-8 -26 -14 -48q-5 -19 -10.5 -37t-7.5 -25t-3 -15t1 -14.5
t9.5 -10.5t21.5 -4h37h67h81h80h64h36q23 0 34 12t2 38q-5 13 -9.5 30.5t-9.5 34.5q-5 19 -11 39h-368zM336 498v228q0 11 2.5 23t10 21.5t20.5 15.5t34 6h188q31 0 51.5 -14.5t20.5 -52.5v-227h-327z" />
    <glyph glyph-name="home" unicode="&#xe603;" 
d="M1024 222l-512 397l-512 -397v162l512 397l512 -397v-162zM896 236v-384h-256v256h-256v-256h-256v384l384 288z" />
    <glyph glyph-name="shanchu" unicode="&#xe61b;" 
d="M790 500h-23v-582h-77v582h-127v-582h-76v582h-128v-582h-76v582h-49h-104v-608q0 -42 30.5 -72t73.5 -30h556q43 0 73.5 30t30.5 72v608q0 1 -12 1t-41 -0.5t-51 -0.5v0zM944 682h-228v62q0 25 -35.5 45.5t-66.5 20.5h-204q-31 0 -66.5 -20.5t-35.5 -45.5v-62h-228
q-22 0 -37 -15t-15 -36t15 -36t37 -15h864q22 0 37 15t15 36t-15 36t-37 15v0zM614 682h-204v26h204v-26v0zM614 682z" />
    <glyph glyph-name="mima" unicode="&#xe65e;" 
d="M763 357v148q0 101 -72 173t-173 72h-2.5h-2.5h-2.5h-1.5q-102 0 -174 -72t-72 -173v-148h-86v-507h675v507h-89zM591 -57h-153l37 164q-37 22 -37 66q0 31 22.5 53.5t54 22.5t54 -22.5t22.5 -53.5q0 -44 -38 -66zM640 357h-254v148q0 50 36 86t87 36h6h3q50 0 86 -36
t36 -86v-148z" />
    <glyph glyph-name="unie614" unicode="&#xe63a;" 
d="M-53 853v0v0zM789 351v163q0 55 -21.5 105t-58 86.5t-86 58t-104.5 21.5h-10q-113 0 -192.5 -79.5t-79.5 -191.5v-163h-95v-559h745v559h-98v0zM599 -106h-169l41 181q-41 24 -41 73q0 34 25 59t60 25t59.5 -25t24.5 -59q0 -49 -42 -73zM653 351h-280v163q0 55 39.5 95
t96.5 40h10q27 0 52 -10.5t43 -29t28.5 -43t10.5 -52.5v-163z" />
    <glyph glyph-name="japanese" unicode="&#xe605;" 
d="M426 351q28 12 43 18q39 14 70 21q5 1 5 6q-1 25 -2 38q-1 9 2 12t11 2q20 -3 32 -14q13 -12 9 -35q0 -4 3 -4q20 1 51 -2q65 -6 103 -26q51 -26 75 -63q21 -32 26 -72q2 -17 2 -37q-1 -50 -21 -97q-27 -61 -72 -103q-36 -34 -89 -61q-58 -31 -113 -43q-38 -8 -62 -10
q-9 -1 -13 -1t-4.5 1.5t2.5 3.5q6 4 24 11q10 4 34.5 12.5t37.5 14.5q57 24 110 63q50 37 79 86q26 44 32 89q8 60 -13 105q-32 67 -106 86q-35 8 -87 7q-3 0 -5 -4q-13 -45 -30 -87q-19 -49 -59 -113q-18 -29 -44 -66q-3 -4 -1 -8q22 -44 40 -65q8 -8 9 -17q2 -19 -18 -25
q-14 -6 -23 -3t-21 19q-12 17 -26 50q-2 5 -6 1q-49 -46 -85 -67q-29 -17 -55 -22q-19 -3 -38 0q-19 4 -34 23q-22 27 -26 51q-4 20 -1 43q7 40 25 76q17 36 56 76q47 50 126 107q4 3 4 8q0 13 1.5 36.5t1.5 34.5q1 20 3 42q0 3 0.5 14t1 17t-1 7.5t-7.5 0.5q-10 -2 -39 -3
q-26 -1 -47 0q-43 2 -76 15q-10 4 -15 10q-6 8 3 10.5t20 1.5q9 -1 57 -1q34 1 78 7q7 1 27 3q5 1 5 5q4 40 5 68q2 38 -2 59q-1 3 -3.5 11t-3.5 12q-1 6 0 12q1 11 13 11q14 1 34 -8q13 -6 26 -17t7 -30q-5 -15 -14 -24q-7 -7 -8 -24q-2 -15 -6 -58q-1 -3 -0.5 -3.5
t3.5 0.5q95 24 148 48q30 13 54 12q18 -2 30 -13q7 -7 1 -16q-4 -6 -19 -12q-38 -15 -113 -37q-23 -7 -105 -30q-4 -1 -4 -4q-1 -14 -3.5 -39.5t-3.5 -38.5q-1 -2 -3 -34q0 -5 -2 -30zM387 278h-0.5h-0.5q-7 -4 -7 -5q-33 -23 -59 -47q-56 -53 -81 -96q-26 -47 -20 -93
q4 -36 42 -38q32 -2 65 23q28 22 70 68q3 3 2 7q-3 11 -6 37t-5 73v71zM540 351h-4q-54 -13 -107 -46q-3 -3 -3 -6q0 -7 0.5 -19.5t0.5 -17.5q2 -55 2 -62q1 -9 2 -25.5t2 -23.5q0 -1 2 -14q68 93 105 214z" />
    <glyph glyph-name="mianxingtubiao1cikuyouhua" unicode="&#xe67e;" 
d="M865 -30v0v46h-23v-69h20h3v-68h-91v0h-524q-37 0 -64 26.5t-27 64.5v11v0v0v649q0 38 27 64.5t64 26.5h524v0h91v-91v0v0v-660zM683 562h-319q-9 0 -16 -7t-7 -16.5t7 -16t16 -6.5h319q9 0 15.5 6.5t6.5 16t-6.5 16.5t-15.5 7zM683 448h-319q-9 0 -16 -6.5t-7 -16
t7 -16.5t16 -7h319q9 0 15.5 7t6.5 16.5t-6.5 16t-15.5 6.5zM250 16v-3q-22 -8 -22 -31.5t22 -31.5v-3h364h182v69h-546z" />
    <glyph glyph-name="nv" unicode="&#xe614;" 
d="M730 70h-182v75q124 13 207.5 106t83.5 219q0 89 -43.5 164.5t-119 119t-164.5 43.5t-164.5 -43.5t-119 -119t-43.5 -164.5q0 -126 83.5 -219t207.5 -106v-75h-183q-15 0 -25.5 -11t-10.5 -25.5t10.5 -25t25.5 -11.5v0h183v-180v-2q0 -15 10.5 -25.5t25.5 -10.5
t25.5 10.5t10.5 25.5v0v182h182v0q15 0 26 10.5t11 26t-11 26t-26 10.5v0zM257 470.5q0 105.5 74.5 180t180 74.5t180.5 -74.5t75 -180t-75 -180.5t-180.5 -75t-180 75t-74.5 180.5z" />
    <glyph glyph-name="fankuijianyi" unicode="&#xe8f1;" 
d="M931 644v-580q0 -66 -47 -113t-113 -47h-292q-66 0 -114 48l-314 320q50 50 52 50q12 12 32 12q12 0 24 -6l172 -98v474q0 26 17 43t42.5 17t43 -17t17.5 -43v-280h40v380q0 26 17 43t42.5 17t43 -17t17.5 -43v-380h40v340q0 26 17 43t42.5 17t43 -17t17.5 -43v-340h40
v220q0 26 17 43t42.5 17t43 -17t17.5 -43z" />
    <glyph glyph-name="guanyu" unicode="&#xe6b4;" 
d="M35 896h954q14 0 24.5 -10.5t10.5 -24.5v-954q0 -14 -10.5 -24.5t-24.5 -10.5h-954q-14 0 -24.5 10.5t-10.5 24.5v954q0 14 10.5 24.5t24.5 10.5v0zM561.5 652q16.5 -12 38 -5.5t35.5 27t12.5 44t-17.5 35.5t-37.5 5.5t-36 -27.5t-13 -44t18 -35zM566 108l-3.5 -3.5
t-10.5 -8.5t-13.5 -8.5t-13.5 -5t-11.5 2t-6 13t2.5 28.5q6 38 27 118q8 34 34 126t41 148q0 2 1 6t0 14t-5.5 16.5t-17.5 11t-32 1.5q-44 -7 -100 -49q-51 -39 -82 -80l25 -22l42 42q70 62 66 12q-1 -11 -5 -28q-3 -9 -22.5 -78.5t-26 -96t-19 -78.5t-17.5 -83.5t-4 -53.5
q0 -21 10 -32t24 -12t28 2t23.5 7l9.5 4q26 16 54 40q17 14 37.5 32.5t32.5 30.5l12 11l-22 24z" />
    <glyph glyph-name="tianjia" unicode="&#xe61f;" 
d="M213 370v0v0h2h-2zM70 816v-866h868v866h-868zM721 335h-168v-168q0 -21 -14.5 -36t-34.5 -15q-22 0 -36.5 14.5t-14.5 36.5v168h-166q-22 0 -36.5 15t-14.5 36t14.5 35t36.5 14h166v168q0 22 14.5 36.5t36.5 14.5q20 0 34.5 -15t14.5 -36v-168h168q22 0 36.5 -14
t14.5 -35q-1 -23 -16 -37t-35 -14z" />
    <glyph glyph-name="chinesemedical" unicode="&#xe644;" 
d="M412 876q36 18 52 18t34 -9q21 -10 48 -25q29 -16 42.5 -31.5t22.5 -45.5q9 -29 19 -52q9 -23 9 -25t-7 -16l-12 -24q-4 -12 -6.5 -25.5t2 -13.5t7 -2.5t11.5 0t16 7.5q7 4 34 15q28 12 63 23q37 11 43 9t37 -9q29 -7 49.5 -20.5t20.5 -29.5v-22q0 -7 -11.5 -27.5
t-20.5 -29.5t-9 -11.5t-4.5 -7t-6.5 -8.5q-3 -5 -12 -21t-22 -36q-14 -20 -30 -33.5t-25 -23.5l-8 -8l-10 -10q-9 -9 -9 -11t-2 -6.5t0 -7.5q1 0 2.5 -2t5.5 -6t8 -7q14 -14 27 -25q13 -12 16 -16q2 -5 0 -9.5t-4.5 -13.5t-18.5 -20q-16 -12 -50 -27q-35 -17 -59 -30
q-25 -14 -38 -20q-14 -7 -23 -16l-9 -14q0 -96 2 -138q3 -45 3 -50q0 -7 7 -22q6 -16 10.5 -32t4.5 -18t-2 -5q-2 -2 -7 -9q-4 -7 -15.5 -4.5t-18.5 11.5q-6 9 -13 16q-7 6 -16 13t-14 7h-9q-4 0 -16 9q-11 9 -13 16q-3 7 -5 11q-2 5 0 7q3 3 16 25l14 23q4 69 4 88v36
q0 16 -2 18q-2 3 -2 5t-7 9l-14 14q-6 6 -22 15q-16 10 -25 23.5t-9 20t2 6.5t9 5q8 5 16 9q3 1 9 4t9 5q9 4 16 11l9 9l3 3q1 1 1 2q3 2 3 11v43q0 36 2 84q2 50 0 50t-20 -18q-7 -7 -15.5 -15t-9.5 -10q-7 -7 -18.5 -16t-18.5 -13q-7 -5 -18 -14t-42.5 -43t-38.5 -43
l-14 -18q-7 -9 -4 -18q2 -10 6 -21q6 -14 9 -22q5 -12 7 -21t-2.5 -13.5t-15.5 -11.5t-38.5 9t-54.5 43t-47 46q-21 18 -30 29t-22 34q-11 17 -44 70q-29 48 -31 59q-1 6 1.5 8t9.5 1q13 -2 18 -2t12 -4q6 -5 27 -25q20 -20 47 -53q27 -31 34 -34q7 -2 16 -2t16 2q7 3 9 5
t30 20q14 10 34 23q2 2 7 5t6 4q7 5 11 5q9 4 14 9q1 1 3 2.5t3.5 3t2.5 3.5q5 4 16 11t20 13.5t46 31.5q37 26 59 39t24.5 18l7 14t9 102t-0.5 104q-4 12 -13 29q-9 18 -27 25q-19 7 -48 0q-29 -6 -43 -11t-16 -5t-6.5 2.5t-11.5 9.5t0 18t43 29v0zM738 595q-9 14 -11 11.5
t-20 -8.5q-19 -7 -39 -14t-40.5 -20.5t-23 -20.5t-7 -13.5t-8.5 -29.5q-5 -22 -5 -50q0 -26 -2 -45q-2 -17 -2 -20t4.5 -3t9 -2t18 13.5t27.5 34.5q13 17 15 22q3 5 12 14q9 10 16 18q6 9 10.5 18t14.5 23q9 14 13 22q4 9 14 25q9 16 9 18.5t-5 6.5v0zM738 595z" />
    <glyph glyph-name="yuyin" unicode="&#xe641;" horiz-adv-x="1025" 
d="M888 896h-751q-57 0 -97 -40t-40 -97v-750q0 -57 40 -97t97 -40h751q56 0 96 40t40 97v750q0 57 -40 97t-96 40zM338 613q0 74 51 125.5t123 51.5t123 -51.5t51 -125.5v-257q0 -74 -51 -125.5t-123 -51.5t-123 51.5t-51 125.5v257zM536 77v-52h24q10 0 17 -6.5t7 -17
t-7 -17t-17 -6.5h-99q-11 0 -17.5 6.5t-6.5 17t6.5 17t17.5 6.5h24v52q-92 7 -161.5 71.5t-87.5 156.5h51q18 -77 80.5 -127t141.5 -50t142.5 50.5t78.5 126.5h52q-13 -89 -83 -153.5t-163 -74.5zM512 230q51 0 87 37.5t36 89.5v256q0 53 -35.5 89.5t-87.5 36.5
q-51 0 -87 -37.5t-36 -88.5v-256q0 -52 36 -89.5t87 -37.5z" />
    <glyph glyph-name="riyufanyi" unicode="&#xe610;" 
d="M771 324h54v-69h132v-219h-53v27h-79v-126h-54v126h-80v-28h-52v220h132v69zM691 117h80v84h-80v-84zM904 201h-79v-84h79v84zM346 465h168v-89h-168v89zM346 608h168v-86h-168v86zM791 828h-712q-5 0 -8.5 -3.5t-3.5 -8.5v-676q0 -5 3.5 -9t8.5 -4h542v148h132v74h50
v467q0 5 -3.5 8.5t-8.5 3.5zM567 289h-53v29h-168v-29h-54v377h275v-377z" />
    <glyph glyph-name="shang" unicode="&#xe618;" 
d="M512 760l-444 -752h888z" />
    <glyph glyph-name="xia" unicode="&#xe620;" 
d="M512 8l-444 752h888z" />
    <glyph glyph-name="question" unicode="&#xe62b;" 
d="M925 902h-829q-42 0 -72.5 -30.5t-30.5 -72.5v-829q0 -43 30.5 -73t72.5 -30h829q43 0 73.5 30t30.5 73v829q0 42 -30.5 72.5t-73.5 30.5zM558 12q0 -17 -12 -29.5t-29.5 -12.5t-29.5 12.5t-12 29.5v36q0 17 12 29t29.5 12t29.5 -12t12 -29v-36zM715 411
q-90 -92 -102 -104q-55 -64 -55 -135v0q-1 -16 -13 -27.5t-28 -11.5q-18 0 -30 12t-12 29q0 1 0.5 2.5t0.5 2.5q2 62 33 119q31 53 82.5 100.5t66.5 67.5q28 39 28 89q0 70 -53 117t-122 47q-76 0 -127.5 -57t-51.5 -136v0v-0.5v-1.5q0 -16 -11.5 -28t-28 -12t-28 12
t-11.5 28v1.5v0.5h-1v24q0 47 21 93.5t57.5 81.5t84.5 55q48 19 103 19q107 0 179 -72t72 -180q0 -72 -54 -136z" />
    <glyph glyph-name="nan" unicode="&#xe718;" 
d="M973 858h-304q-13 0 -23.5 -9.5t-10.5 -24.5t9.5 -24.5t24.5 -9.5h222l-242 -242q-112 106 -260 106q-101 0 -186.5 -50t-135.5 -136t-50 -186.5t50 -186.5t135.5 -135.5t186.5 -49.5t186.5 49.5t135.5 135.5t50 187q0 120 -68 215l249 249v-225q0 -14 9.5 -24.5
t24.5 -10.5q16 0 25 9.5t9 25.5v303q-2 16 -12 25t-25 9zM693 281.5q0 -125.5 -89 -214.5t-214.5 -89t-215 89t-89.5 214.5t89.5 214.5t215 89t214.5 -89t89 -214.5z" />
    <glyph glyph-name="start" unicode="&#xe621;" horiz-adv-x="1108" 
d="M551 3l-330 -117l10 348l-214 276l336 98l198 288l198 -288l337 -98l-215 -276l11 -348z" />
    <glyph glyph-name="zhuxiao" unicode="&#xe772;" 
d="M672 774q1 -7 1 -14v-313q0 -62 -44 -105.5t-106 -43.5t-106 43.5t-44 105.5v313q0 10 2 23q-134 -44 -219.5 -159.5t-85.5 -261.5q0 -90 35 -172t94 -141t141 -94t172 -35t172 35t141 94t94 141t35 172q0 139 -78 251.5t-204 160.5zM589 478q0 -29 -20.5 -49.5
t-49.5 -20.5v0q-30 0 -50.5 20.5t-20.5 49.5v327q0 29 20.5 49.5t50.5 20.5v0q29 0 49.5 -20.5t20.5 -49.5v-327z" />
    <glyph glyph-name="laba" unicode="&#xe606;" horiz-adv-x="1199" 
d="M553 -8q0 -19 -13.5 -32.5t-32.5 -13.5t-32 14l-240 240h-189q-19 0 -32.5 13.5t-13.5 32.5v276q0 19 13.5 32.5t32.5 13.5h189l239 240q14 14 32 14q19 0 32.5 -13.5t13.5 -32.5v-784h1v0v0zM718 215q-5 -2 -18 -2q-19 0 -32.5 13.5t-13.5 32.5q0 14 8.5 24.5t20.5 18
t24.5 16.5t21 26t8.5 41t-8.5 40.5t-21 25.5t-24.5 16.5t-20.5 18t-8.5 25.5q0 20 13 33t33 13q13 0 18 -3q50 -20 80.5 -67.5t30.5 -102.5t-30.5 -102t-80.5 -67v0v0zM790 44q-13 -2 -18 -2q-20 0 -33.5 13.5t-13.5 32.5q0 27 28 42q44 23 55 32q53 39 83 97.5t30 124
t-30 125t-83 97.5q-14 12 -54 32q-29 13 -29 42q0 19 14 32.5t32 13.5q7 0 19 -2q101 -43 162 -136t61 -203t-61 -204t-162 -137v0v0zM863 -124q-10 -4 -19 -4q-19 0 -32.5 13.5t-13.5 32.5q0 25 28 42q2 1 14 6.5t18 9.5q41 23 60 37q88 64 137.5 162.5t49.5 209.5
q0 110 -49.5 207.5t-137.5 163.5q-23 16 -59 37q-5 2 -16.5 6.5t-16.5 7.5q-28 17 -28 43q0 19 13.5 32.5t32.5 13.5q9 0 19 -4q152 -65 243.5 -203.5t91.5 -303.5q0 -166 -91.5 -305t-243.5 -204v0v0zM863 -124z" />
    <glyph glyph-name="filter" unicode="&#xe678;" 
d="M949 817h-874q-21 0 -30 -19.5t4 -35.5l384 -447q20 -23 20 -51v-284q0 -12 9 -20.5t20 -8.5h60q11 0 20 8.5t9 20.5v284q0 31 20 51l384 447q13 16 4.5 35.5t-30.5 19.5z" />
    <glyph glyph-name="word" unicode="&#xe601;" 
d="M625 763v-66h310v-44h-310v-70h310v-43h-310v-68h310v-43h-310v-69h310v-43h-310v-68h310v-44h-310v-68h310v-43h-310v-89h399v758h-399zM0 787v-806l577 -109v1024l-577 -109v0zM418 210h-85l-53 238l-68 -238h-58l-83 351h83l33 -219l55 241h87l47 -263l50 263h83z" />
    <glyph glyph-name="dianhuahaoma" unicode="&#xe62a;" 
d="M732 0q-79 0 -212 67t-210.5 145t-144.5 212t-67 213l8.5 13.5t23.5 32.5t32 38.5t36 33t34 13.5q19 0 54 -25.5t64.5 -60.5t44.5 -70.5t-5 -55.5q-19 -20 -48.5 -37.5t-43 -31.5t-13.5 -37q0 -19 8 -39t26 -42.5t31.5 -37t39.5 -41.5q35 -35 54.5 -53t49.5 -35.5
t55 -17.5q23 0 37 14t31.5 43.5t37.5 48.5q19 21 54.5 5.5t70.5 -45t60.5 -64.5t25.5 -55q0 -46 -117 -120z" />
    <glyph glyph-name="xiugai" unicode="&#xe604;" 
d="M922 -128h-820q-42 0 -72 30t-30 72v820q0 42 30 72t72 30h820q42 0 72 -30t30 -72v-820q0 -42 -30 -72t-72 -30zM154 48l215 79l-134 123zM261 274l135 -124l365 336l-134 124zM854 648l-54 50q-17 16 -40.5 16t-40.5 -16l-67 -62l134 -124l68 62q16 15 16 37t-16 37z
" />
    <glyph glyph-name="denglu-nicheng" unicode="&#xe609;" 
d="M1002 -90v-26h-144h23h-275h-40h-545v26q1 1 -0.5 5.5t1 13.5t4 20.5t9 25t16.5 27.5t25 28t36 26t49 22t64 16q6 1 17.5 3t40.5 8t51.5 13.5t42.5 19t24 24.5l1 3t2 16t-2 38q-3 39 -18 74.5t-30 55t-36.5 44t-27.5 34.5q-13 19 -21 42t-10 36l-1 14q0 12 13 24
q7 7 7.5 15.5t-1.5 16.5q-6 31 -6.5 75t5.5 76q0 22 12 44.5t24 34.5l11 11q17 14 24 25q2 4 4 9q2 6 -2.5 16t-3.5 16q2 11 33 12q49 3 77 1q168 -13 247 -77l10 -9q21 -25 31 -63q3 -11 4 -20q7 -43 4 -106q-1 -21 -5 -49q-2 -15 5 -24q11 -14 13 -17q1 -5 1 -11v0
q0 -5 -1.5 -15t-9.5 -34t-21 -43q-7 -10 -28 -34.5t-36.5 -44t-30 -55t-18.5 -74.5q-2 -25 -1.5 -38t2.5 -16l1 -3q3 -13 23 -24.5t43 -19t52 -13.5t40 -8t18 -3v0q35 -6 64.5 -16.5t49.5 -22.5t36 -26t25 -28t15.5 -27.5t9 -25t4 -20t0.5 -13.5v-5z" />
  </font>
</defs>
</svg>
